<svg width="32" height="32" viewBox="0 0 32 32" fill="none" xmlns="http://www.w3.org/2000/svg">
<g clip-path="url(#clip0_383_6705)">
<path d="M16 32C24.8366 32 32 24.8366 32 16C32 7.16344 24.8366 0 16 0C7.16344 0 0 7.16344 0 16C0 24.8366 7.16344 32 16 32Z" fill="#627EEA"/>
<path d="M16 4V13L24 16L16 4Z" fill="white" fill-opacity="0.602"/>
<path d="M16 4L8 16L16 13V4Z" fill="white"/>
<path d="M16 22V28L24 17L16 22Z" fill="white" fill-opacity="0.602"/>
<path d="M16 28V22L8 17L16 28Z" fill="white"/>
<path d="M16 21L24 16L16 13V21Z" fill="white" fill-opacity="0.2"/>
<path d="M8 16L16 21V13L8 16Z" fill="white" fill-opacity="0.602"/>
</g>
<defs>
<clipPath id="clip0_383_6705">
<rect width="32" height="32" fill="white"/>
</clipPath>
</defs>
</svg>
