<svg width="32" height="32" viewBox="0 0 32 32" fill="none" xmlns="http://www.w3.org/2000/svg">
<path d="M15.9937 0C24.8343 0 32 7.16427 32 16.0031C32 24.842 24.8343 32 16 32C7.15939 32 4.14669e-06 24.8357 4.14669e-06 16.0031C-0.00629259 7.16427 7.15939 0 15.9937 0Z" fill="#8247E5"/>
<path d="M21.2386 12.5153C20.8545 12.2949 20.3634 12.2949 19.9289 12.5153L16.8687 14.3284L14.7908 15.4805L11.7872 17.2873C11.4031 17.5076 10.912 17.5076 10.4775 17.2873L8.12883 15.8582C7.74473 15.6378 7.47397 15.1972 7.47397 14.7061V11.9613C7.47397 11.5206 7.69435 11.0862 8.12883 10.8092L10.4775 9.43678C10.8616 9.21644 11.3528 9.21644 11.7872 9.43678L14.1359 10.8659C14.52 11.0862 14.7908 11.5269 14.7908 12.0179V13.831L16.8687 12.6223V10.7588C16.8687 10.3182 16.6483 9.88376 16.2138 9.60676L11.8439 7.02561C11.4598 6.80527 10.9687 6.80527 10.5342 7.02561L6.0572 9.66342C5.62273 9.88376 5.40234 10.3244 5.40234 10.7588V15.9148C5.40234 16.3555 5.62273 16.7899 6.0572 17.0669L10.4838 19.6481C10.8679 19.8684 11.3591 19.8684 11.7935 19.6481L14.7971 17.8916L16.875 16.6829L19.8785 14.9265C20.2626 14.7061 20.7538 14.7061 21.1883 14.9265L23.5369 16.2989C23.921 16.5192 24.1918 16.9599 24.1918 17.4509V20.1958C24.1918 20.6365 23.9714 21.0709 23.5369 21.3479L21.2449 22.7203C20.8608 22.9406 20.3697 22.9406 19.9352 22.7203L17.5802 21.3479C17.1961 21.1275 16.9254 20.6868 16.9254 20.1958V18.4393L14.8474 19.6481V21.4612C14.8474 21.9019 15.0678 22.3363 15.5023 22.6133L19.9289 25.1944C20.313 25.4147 20.8042 25.4147 21.2386 25.1944L25.6652 22.6133C26.0493 22.3929 26.3201 21.9522 26.3201 21.4612V16.2485C26.3201 15.8078 26.0997 15.3734 25.6652 15.0964L21.2386 12.5153Z" fill="white"/>
</svg>
